<svg height="512pt" viewBox="0 0 512 512" width="512pt" xmlns="http://www.w3.org/2000/svg"><path d="m160 96h320v16h-320zm0 0"/><path d="m32 96h16v16h-16zm0 0"/><path d="m64 96h16v16h-16zm0 0"/><path d="m96 96h16v16h-16zm0 0"/><path d="m200 368h16v16h-16zm0 0"/><path d="m248 368h16v16h-16zm0 0"/><path d="m304 368h16v16h-16zm0 0"/><path d="m328 192h48v16h-48zm0 0"/><path d="m272 216h32v16h-32zm0 0"/><path d="m512 416v-352h-72v-16h42.246094l-12-48h-76.492188l-12 48h42.246094v16h-160v-16h42.246094l-12-48h-76.492188l-12 48h42.246094v16h-160v-16h42.246094l-12-48h-76.492188l-12 48h42.246094v16h-72v352h80v16h-80v16h216v64h16v-64h48v64h16v-64h216v-16h-80v-16zm-109.753906-384 4-16h51.507812l4 16zm-176 0 4-16h51.507812l4 16zm-176 0 4-16h51.507812l4 16zm-34.246094 48h480v48h-480zm200 352h-120v-16h120zm64 0h-48v-16h48zm136 0h-120v-16h120zm-120-32h-280v-256h480v256zm0 0"/><path d="m88 352h336v-192h-336zm23.3125-16 104.6875-104.6875 104.6875 104.6875zm296.6875 0h-64.6875l-26-26 50.6875-50.6875 40 40zm-304-160h304v100.6875l-40-40-62 62-90-90-112 112zm0 0"/><path d="m60.976562 223.71875-28.296874 28.28125 28.296874 28.28125 11.3125-11.3125-16.96875-16.96875 16.96875-16.96875zm0 0"/><path d="m439.710938 235.03125 16.96875 16.96875-16.96875 16.96875 11.3125 11.3125 28.296874-28.28125-28.296874-28.28125zm0 0"/><path d="m144 192c-13.253906 0-24 10.746094-24 24s10.746094 24 24 24 24-10.746094 24-24-10.746094-24-24-24zm0 32c-4.417969 0-8-3.582031-8-8s3.582031-8 8-8 8 3.582031 8 8-3.582031 8-8 8zm0 0"/></svg>