<svg enable-background="new 0 0 24 24" height="512" viewBox="0 0 24 24" width="512" xmlns="http://www.w3.org/2000/svg"><path d="m22.5 20h-21c-.827 0-1.5-.673-1.5-1.5v-13c0-.827.673-1.5 1.5-1.5h3c.276 0 .5.224.5.5s-.224.5-.5.5h-3c-.276 0-.5.225-.5.5v13c0 .275.224.5.5.5h21c.276 0 .5-.225.5-.5v-13c0-.275-.224-.5-.5-.5h-3c-.276 0-.5-.224-.5-.5s.224-.5.5-.5h3c.827 0 1.5.673 1.5 1.5v13c0 .827-.673 1.5-1.5 1.5z"/><path d="m16.5 24h-9c-.276 0-.5-.224-.5-.5s.224-.5.5-.5h9c.276 0 .5.224.5.5s-.224.5-.5.5z"/><path d="m10.5 24c-.276 0-.5-.224-.5-.5v-4c0-.276.224-.5.5-.5s.5.224.5.5v4c0 .276-.224.5-.5.5z"/><path d="m13.5 24c-.276 0-.5-.224-.5-.5v-4c0-.276.224-.5.5-.5s.5.224.5.5v4c0 .276-.224.5-.5.5z"/><path d="m11.997 12c-.072 0-.144-.016-.21-.047l-5.497-2.554c-.177-.082-.29-.258-.29-.453v-5.892c0-.171.087-.33.231-.422.144-.091.326-.103.479-.031l5.497 2.554c.177.082.29.259.29.453v5.892c0 .171-.087.33-.231.422-.082.052-.176.078-.269.078zm-4.997-3.373 4.497 2.09v-4.79l-4.497-2.09z"/><path d="m12.003 12c-.094 0-.188-.026-.269-.078-.144-.092-.231-.251-.231-.422v-5.893c0-.194.113-.371.29-.453l5.497-2.554c.155-.071.336-.06.479.031.144.093.231.252.231.423v5.893c0 .194-.113.371-.29.453l-5.497 2.554c-.066.03-.138.046-.21.046zm.5-6.073v4.79l4.497-2.09v-4.79zm4.997 3.019h.01z"/><path d="m17.5 3.554c-.07 0-.142-.015-.21-.047l-5.286-2.455-5.294 2.455c-.25.119-.547.008-.664-.242-.116-.251-.007-.548.244-.664l5.503-2.554c.134-.062.288-.062.421 0l5.497 2.554c.25.116.359.413.243.664-.085.181-.266.289-.454.289z"/><path d="m15 7c-.276 0-.5-.224-.5-.5v-1.96l-5.155-2.459c-.249-.119-.355-.417-.236-.666.118-.25.417-.357.667-.236l5.406 2.578c.184.075.318.254.318.463v2.28c0 .276-.224.5-.5.5z"/></svg>