<svg id="Capa_1" enable-background="new 0 0 512 512" height="512" viewBox="0 0 512 512" width="512" xmlns="http://www.w3.org/2000/svg"><g><path d="m497 201h-33.118c-4.903-18.57-12.288-36.336-22.051-53.05l23.473-23.472c2.813-2.813 4.394-6.628 4.394-10.607s-1.581-7.793-4.394-10.606l-56.568-56.568c-5.857-5.857-15.355-5.858-21.213 0l-23.474 23.473c-16.714-9.763-34.48-17.148-53.049-22.051v-33.119c0-8.284-6.716-15-15-15h-80c-8.284 0-15 6.716-15 15v33.119c-18.569 4.903-36.335 12.288-53.049 22.051l-23.473-23.473c-5.857-5.857-15.355-5.858-21.213 0l-56.568 56.568c-2.813 2.813-4.394 6.628-4.394 10.606s1.581 7.793 4.394 10.607l23.473 23.472c-9.764 16.715-17.148 34.48-22.052 53.05h-33.118c-8.284 0-15 6.716-15 15v80c0 8.284 6.716 15 15 15h33.118c4.903 18.57 12.288 36.335 22.051 53.049l-23.473 23.472c-2.813 2.813-4.394 6.628-4.394 10.607 0 3.978 1.58 7.793 4.394 10.606l56.568 56.569c2.813 2.813 6.628 4.394 10.606 4.394s7.793-1.581 10.606-4.394l23.473-23.473c16.714 9.763 34.479 17.147 53.049 22.051v33.119c0 8.284 6.716 15 15 15h80c8.284 0 15-6.716 15-15v-33.118c18.57-4.903 36.335-12.288 53.049-22.051l23.473 23.473c2.813 2.813 6.628 4.394 10.606 4.394 3.979 0 7.793-1.581 10.606-4.394l56.568-56.569c2.813-2.813 4.394-6.628 4.394-10.606 0-3.979-1.581-7.793-4.394-10.607l-23.473-23.472c9.763-16.714 17.147-34.479 22.051-53.049h33.122c8.284 0 15-6.716 15-15v-80c0-8.285-6.716-15.001-15-15.001zm-241 195c-77.197 0-140-62.804-140-140s62.804-140 140-140 140 62.804 140 140-62.803 140-140 140z"/><path d="m316 181h-45v30c0 8.284-6.716 15-15 15s-15-6.716-15-15v-30h-45c-8.284 0-15 6.716-15 15v120c0 8.284 6.716 15 15 15h120c8.284 0 15-6.716 15-15v-120c0-8.284-6.716-15-15-15z"/></g></svg>