<svg width="24" height="24" viewBox="0 0 24 24" fill="none" xmlns="http://www.w3.org/2000/svg">
<g opacity="0.52">
<path d="M24 14.25C24 13.649 23.761 13.089 23.349 12.676C23.816 12.165 24.054 11.48 23.989 10.767C23.872 9.49597 22.727 8.49997 21.381 8.49997H15.204C15.51 7.57095 16 5.86798 16 4.49998C16 2.33098 14.157 0.5 13 0.5C11.962 0.5 11.219 1.085 11.188 1.109C11.069 1.20402 11 1.34802 11 1.49998V4.89097L8.11898 11.13L7.99997 11.191V11C7.99997 10.724 7.77595 10.4999 7.49995 10.4999H2.49998C1.12102 10.5 0 11.621 0 13V21C0 22.379 1.12102 23.5 2.49998 23.5H5.49998C6.58097 23.5 7.50497 22.81 7.85297 21.847C8.685 22.275 9.80498 22.5 10.5 22.5H19.679C20.768 22.5 21.721 21.766 21.945 20.754C22.06 20.232 21.993 19.707 21.765 19.251C22.503 18.88 23 18.117 23 17.25C23 16.896 22.919 16.557 22.766 16.251C23.504 15.879 24 15.117 24 14.25ZM21.891 15.484C21.698 15.507 21.535 15.638 21.473 15.823C21.412 16.008 21.463 16.211 21.605 16.345C21.859 16.584 22 16.906 22 17.25C22 17.881 21.523 18.411 20.892 18.484C20.6991 18.507 20.536 18.638 20.4741 18.823C20.4131 19.008 20.4641 19.211 20.6061 19.345C20.9351 19.655 21.0671 20.09 20.9681 20.538C20.8451 21.096 20.3031 21.5 19.6791 21.5H10.5C9.68798 21.5 8.32598 21.119 7.854 20.646C7.71098 20.504 7.49498 20.462 7.30898 20.538C7.122 20.615 6.99998 20.798 6.99998 21C6.99998 21.827 6.327 22.5 5.49998 22.5H2.49998C1.67297 22.5 0.999984 21.827 0.999984 21V13C0.999984 12.173 1.67297 11.5 2.49998 11.5H6.99998V12C6.99998 12.173 7.08998 12.334 7.23797 12.426C7.38398 12.514 7.56797 12.523 7.72397 12.447L8.72395 11.947C8.82497 11.897 8.90597 11.813 8.95397 11.71L11.954 5.20995C11.984 5.14395 12 5.07195 12 4.99995V1.77097C12.208 1.65598 12.569 1.49998 13 1.49998C13.548 1.49998 15 2.86198 15 4.49998C15 6.26 14.042 8.79697 14.033 8.822C13.975 8.975 13.995 9.14802 14.088 9.284C14.182 9.419 14.336 9.5 14.5 9.5H21.381C22.215 9.5 22.923 10.097 22.993 10.859C23.046 11.429 22.772 11.971 22.281 12.274C22.128 12.368 22.037 12.538 22.044 12.719C22.051 12.9 22.155 13.062 22.315 13.145C22.738 13.36 23 13.784 23 14.25C23 14.881 22.523 15.411 21.891 15.484Z" fill="black"/>
<path d="M7.50197 11.5C7.22597 11.5 7.00195 11.724 7.00195 12V21C7.00195 21.276 7.22597 21.5 7.50197 21.5C7.77797 21.5 8.00199 21.276 8.00199 21V12C8.00199 11.724 7.77797 11.5 7.50197 11.5Z" fill="black"/>
</g>
</svg>
