<svg width="32" height="32" viewBox="0 0 32 32" fill="none" xmlns="http://www.w3.org/2000/svg">
<g opacity="0.52" filter="url(#filter0_d)">
<path d="M28 9.75002C28 10.351 27.761 10.911 27.349 11.324C27.816 11.835 28.054 12.52 27.989 13.233C27.872 14.504 26.727 15.5 25.381 15.5H19.204C19.51 16.429 20 18.132 20 19.5C20 21.669 18.157 23.5 17 23.5C15.962 23.5 15.219 22.915 15.188 22.891C15.069 22.796 15 22.652 15 22.5V19.109L12.119 12.87L12 12.809V13C12 13.276 11.776 13.5001 11.5 13.5001H6.49998C5.12102 13.5 4 12.379 4 11V3.00002C4 1.621 5.12102 0.500031 6.49998 0.500031H9.49998C10.581 0.500031 11.505 1.19003 11.853 2.15303C12.685 1.72502 13.805 1.50002 14.5 1.50002H23.679C24.768 1.50002 25.721 2.23403 25.945 3.24601C26.06 3.76801 25.993 4.29302 25.765 4.74902C26.503 5.12003 27 5.88301 27 6.75002C27 7.10402 26.919 7.44302 26.766 7.74902C27.504 8.12102 28 8.88302 28 9.75002ZM25.891 8.51603C25.698 8.49301 25.535 8.36205 25.473 8.17703C25.412 7.99201 25.463 7.78905 25.605 7.65503C25.859 7.41602 26 7.09403 26 6.75002C26 6.11903 25.523 5.58901 24.892 5.51603C24.6991 5.49302 24.536 5.36205 24.4741 5.17703C24.4131 4.99202 24.4641 4.78905 24.6061 4.65503C24.9351 4.34505 25.0671 3.91005 24.9681 3.46202C24.8451 2.90401 24.3031 2.5 23.6791 2.5H14.5C13.688 2.5 12.326 2.881 11.854 3.35402C11.711 3.496 11.495 3.538 11.309 3.46202C11.122 3.385 11 3.202 11 3.00002C11 2.173 10.327 1.50002 9.49998 1.50002H6.49998C5.67297 1.50002 4.99998 2.173 4.99998 3.00002V11C4.99998 11.827 5.67297 12.5 6.49998 12.5H11V12C11 11.827 11.09 11.666 11.238 11.574C11.384 11.486 11.568 11.477 11.724 11.553L12.724 12.053C12.825 12.103 12.906 12.187 12.954 12.29L15.954 18.79C15.984 18.856 16 18.928 16 19V22.229C16.208 22.344 16.569 22.5 17 22.5C17.548 22.5 19 21.138 19 19.5C19 17.74 18.042 15.203 18.033 15.178C17.975 15.025 17.995 14.852 18.088 14.716C18.182 14.581 18.336 14.5 18.5 14.5H25.381C26.215 14.5 26.923 13.903 26.993 13.141C27.046 12.571 26.772 12.029 26.281 11.726C26.128 11.632 26.037 11.462 26.044 11.281C26.051 11.1 26.155 10.938 26.315 10.855C26.738 10.64 27 10.216 27 9.75002C27 9.11903 26.523 8.58902 25.891 8.51603Z" fill="black"/>
<path d="M11.502 12.5C11.226 12.5 11.002 12.276 11.002 12V2.99997C11.002 2.72397 11.226 2.49995 11.502 2.49995C11.778 2.49995 12.002 2.72397 12.002 2.99997V12C12.002 12.276 11.778 12.5 11.502 12.5Z" fill="black"/>
</g>
<defs>
<filter id="filter0_d" x="0" y="0" width="32" height="32" filterUnits="userSpaceOnUse" color-interpolation-filters="sRGB">
<feFlood flood-opacity="0" result="BackgroundImageFix"/>
<feColorMatrix in="SourceAlpha" type="matrix" values="0 0 0 0 0 0 0 0 0 0 0 0 0 0 0 0 0 0 127 0"/>
<feOffset dy="4"/>
<feGaussianBlur stdDeviation="2"/>
<feColorMatrix type="matrix" values="0 0 0 0 0 0 0 0 0 0 0 0 0 0 0 0 0 0 0.25 0"/>
<feBlend mode="normal" in2="BackgroundImageFix" result="effect1_dropShadow"/>
<feBlend mode="normal" in="SourceGraphic" in2="effect1_dropShadow" result="shape"/>
</filter>
</defs>
</svg>
